<?xml version="1.0" encoding="iso-8859-1"?>
<!-- Generator: Adobe Illustrator 19.0.0, SVG Export Plug-In . SVG Version: 6.00 Build 0)  -->
<svg version="1.1" id="Capa_1" xmlns="http://www.w3.org/2000/svg" xmlns:xlink="http://www.w3.org/1999/xlink" x="0px" y="0px"
	 viewBox="0 0 496 496" style="enable-background:new 0 0 496 496;" xml:space="preserve">
<g>
	<g>
		<path d="M496,176v-4.832L333.88,85.84L329.744,91c-0.28,0.376-30.192,37-81.744,37c-51.264,0-81.472-36.64-81.752-37l-4.136-5.16
			L0,171.168V176c0,72.92,31.712,141.312,87.072,188.584L74.048,408H0v16h85.952l20.856-69.544L129.168,496h20.864l29.504-103.232
			L193.584,456H496v-16H206.416l-4.52-20.344C217.032,422.504,232.48,424,248,424C384.752,424,496,312.752,496,176z
			 M141.104,469.024l-11.896-75.344c9.544,5.216,19.392,9.856,29.496,13.752L141.104,469.024z M198.088,402.528L190.416,368h-20.448
			l-6.848,23.952c-12.872-5.064-25.336-11.328-37.136-18.64L118.832,328H98.04l-5.936,19.8
			c-47.32-42.928-74.744-102.936-76.056-166.992l142.192-74.832C169.328,117.328,200.424,144,248,144s78.672-26.672,89.76-38.032
			L479.952,180.8C477.384,306.512,374.32,408,248,408C231.144,408,214.4,406.104,198.088,402.528z"/>
	</g>
</g>
<g>
	<g>
		<path d="M360,152c-17.824,0-35.08,5.984-49.12,16.944c-2.288-0.632-4.584-0.944-6.88-0.944c-13.728,0-25.824,10.456-33.176,28.152
			C262.584,188.6,251.704,184,239.768,184c-12.304,0-23.864,4.792-32.568,13.496l-7.976,7.976
			c-8.84-13.36-23.648-21.472-39.968-21.472c-5.768,0-11.44,1.032-16.864,3.056L91.136,206.28l-9.384-14.072
			C78.328,187.072,72.6,184,66.424,184C56.264,184,48,192.264,48,202.424V232c0,13.232,10.768,24,24,24v16c0,8.824,7.176,16,16,16
			h12.048c16.136,20.656,35.864,37.736,58.712,50.792l10.504,6C182.432,354.312,198.544,360,216,360
			c32.84,0,65.104-8.936,93.272-25.832L347.88,311c4,0.616,8.04,1,12.12,1c44.112,0,80-35.888,80-80S404.112,152,360,152z
			 M110.4,275.2L108,272H88v-16h22.704c11.68,0,22.008,7.448,25.712,18.528h0.008C136.176,276.336,136,278.152,136,280
			c0,9.36,1.704,18.312,4.672,26.672C129.456,297.408,119.24,286.992,110.4,275.2z M360,296c-15.528,0-30.536-5.696-42.256-16.04
			l-10.592,12c6.024,5.312,12.776,9.584,19.952,12.848l-26.064,15.64C275.352,335.848,245.944,344,216,344
			c-35.288,0-64-28.712-64-64c0-6.888,2.96-13.448,8.128-18l-10.576-12c-2.048,1.808-3.872,3.816-5.488,5.96
			c-8.024-9.856-20.104-15.96-33.36-15.96H72c-4.416,0-8-3.584-8-8v-29.576c0-2.152,3.24-3.144,4.44-1.344l16.432,24.64
			l63.144-23.68c3.608-1.352,7.4-2.04,11.24-2.04c12.208,0,23.184,6.792,28.648,17.712C197.248,236.392,216.032,248,236.92,248H248
			v-16h-11.08c-11.216,0-21.56-4.744-28.8-12.808l10.384-10.384c5.68-5.68,13.224-8.808,21.256-8.808
			c14.752,0,27.216,10.56,29.64,25.12c2.088,12.472,9.304,23.64,19.824,30.648l10.336,6.888l8.872-13.312l-10.336-6.888
			c-6.848-4.56-11.552-11.84-12.912-19.968c-0.568-3.432-1.616-6.656-2.872-9.76l0.488-2.632C287.04,194.488,295.56,184,304,184
			c1.592,0,3.224,0.416,4.992,1.256l4.776,2.28l3.976-3.504C329.464,173.696,344.472,168,360,168c35.288,0,64,28.712,64,64
			C424,267.288,395.288,296,360,296z"/>
	</g>
</g>
<g>
	<g>
		<path d="M298.912,58.912C285.312,72.504,267.232,80,248,80s-37.312-7.496-50.912-21.088l-11.312,11.312
			C202.392,86.84,224.496,96,248,96c23.504,0,45.608-9.16,62.224-25.776L298.912,58.912z"/>
	</g>
</g>
<g>
	<g>
		<path d="M270.624,30.624c-12.08,12.096-33.168,12.096-45.248,0l-11.312,11.312C223.12,51.008,235.168,56,248,56
			c12.832,0,24.88-4.992,33.936-14.064L270.624,30.624z"/>
	</g>
</g>
<g>
	<g>
		<rect x="240" width="16" height="16"/>
	</g>
</g>
<g>
</g>
<g>
</g>
<g>
</g>
<g>
</g>
<g>
</g>
<g>
</g>
<g>
</g>
<g>
</g>
<g>
</g>
<g>
</g>
<g>
</g>
<g>
</g>
<g>
</g>
<g>
</g>
<g>
</g>
</svg>
